<svg xmlns="http://www.w3.org/2000/svg" width="1515" height="12445" viewBox="0 0 1515 12445">
  <g id="Group_31" data-name="Group 31" transform="translate(2300 3208)">
    <g id="Rectangle_1" data-name="Rectangle 1" transform="translate(-2300 -3208)" fill="#fff" stroke="#707070" stroke-width="1">
      <rect width="1515" height="12445" stroke="none"/>
      <rect x="0.5" y="0.5" width="1514" height="12444" fill="none"/>
    </g>
    <g id="app-development" transform="translate(-1437 6442)">
      <g id="Group_1" data-name="Group 1">
        <path id="Path_1" data-name="Path 1" d="M475,47H448c-4.143,0-7,3.857-7,8a6.674,6.674,0,0,0,7,7h27c12.406,0,22,10.594,22,23v34H15V85A23.39,23.39,0,0,1,38,62H416a6.674,6.674,0,0,0,7-7c0-4.143-2.857-8-7-8H38A38.4,38.4,0,0,0,0,85V191a8.381,8.381,0,0,0,8,8c4.142,0,7-3.857,7-8V134H497V379a22.265,22.265,0,0,1-15,21V384c0-4.143-2.857-8-7-8a8.381,8.381,0,0,0-8,8v17H296V198a7.4,7.4,0,0,1,7-7H461c3.584,0,6,3.416,6,7V351a8.381,8.381,0,0,0,8,8c4.143,0,7-3.857,7-8V198c0-11.855-9.145-22-21-22H303a22.389,22.389,0,0,0-22,22V401H38c-12.407,0-23-9.594-23-22V224c0-4.143-2.858-8-7-8a8.381,8.381,0,0,0-8,8V379c0,20.678,17.322,37,38,37H281v28c0,11.855,10.145,21,22,21H461a20.68,20.68,0,0,0,21-21V415c17.1-3.484,30-17.89,30-36V85C512,64.322,495.678,47,475,47Zm-8,397a5.685,5.685,0,0,1-6,6H303c-3.584,0-7-2.416-7-6V416H467Z"/>
        <path id="Path_2" data-name="Path 2" d="M33,91c0,12.406,10.593,22,23,22A21.68,21.68,0,0,0,78,91c0-12.406-9.593-23-22-23A23.39,23.39,0,0,0,33,91Zm30,0a6.682,6.682,0,0,1-7,7c-4.136,0-8-2.864-8-7a8.391,8.391,0,0,1,8-8C60.136,83,63,86.864,63,91Z"/>
        <path id="Path_3" data-name="Path 3" d="M91,91c0,12.406,10.593,22,23,22a21.68,21.68,0,0,0,22-22c0-12.406-9.593-23-22-23A23.39,23.39,0,0,0,91,91Zm30,0a6.682,6.682,0,0,1-7,7c-4.136,0-8-2.864-8-7a8.391,8.391,0,0,1,8-8C118.136,83,121,86.864,121,91Z"/>
        <path id="Path_4" data-name="Path 4" d="M149,91c0,12.406,10.593,22,23,22a21.68,21.68,0,0,0,22-22c0-12.406-9.593-23-22-23A23.39,23.39,0,0,0,149,91Zm30,0a6.682,6.682,0,0,1-7,7c-4.136,0-8-2.864-8-7a8.391,8.391,0,0,1,8-8C176.136,83,179,86.864,179,91Z"/>
        <path id="Path_5" data-name="Path 5" d="M400,199H364a8.381,8.381,0,0,0-8,8c0,4.143,3.857,7,8,7h36a6.674,6.674,0,0,0,7-7C407,202.857,404.143,199,400,199Z"/>
        <path id="Path_6" data-name="Path 6" d="M352,276a7.986,7.986,0,0,0-11,0l-28,29a6.789,6.789,0,0,0,0,10l28,28a7.25,7.25,0,0,0,10,0,6.788,6.788,0,0,0,0-10l-22-23,23-23A7.985,7.985,0,0,0,352,276Z"/>
        <path id="Path_7" data-name="Path 7" d="M412,343a7.25,7.25,0,0,0,10,0l28-28a6.789,6.789,0,0,0,0-10l-28-29a7.778,7.778,0,0,0-11,11l23,23-22,23A6.787,6.787,0,0,0,412,343Z"/>
        <path id="Path_8" data-name="Path 8" d="M401,258c-3.872-1.471-8.529,1.126-10,5l-33,88c-1.47,3.872.127,8.53,4,10,.876.333,2.115,0,3,0,3.025,0,5.862-1,7-4l33-89C406.469,264.127,404.873,259.469,401,258Z"/>
        <path id="Path_9" data-name="Path 9" d="M103,209a6.675,6.675,0,0,0,7-7V162c0-4.143-2.858-8-7-8H94c-4.142,0-7,3.857-7,8a6.675,6.675,0,0,0,7,7h1v33C95,206.143,98.858,209,103,209Z"/>
        <path id="Path_10" data-name="Path 10" d="M59,291a6.675,6.675,0,0,0,7-7V244c0-4.143-2.858-8-7-8H50c-4.142,0-7,3.857-7,8a6.675,6.675,0,0,0,7,7h1v33C51,288.142,54.858,291,59,291Z"/>
        <path id="Path_11" data-name="Path 11" d="M73,191V173a19,19,0,0,0-38,0v18a19,19,0,0,0,38,0Zm-15,0a4,4,0,0,1-8,0V173a4,4,0,0,1,8,0Z"/>
        <path id="Path_12" data-name="Path 12" d="M84,273a19,19,0,0,0,38,0V255a19,19,0,1,0-38,0Zm15-18a4,4,0,1,1,8,0v18a4,4,0,0,1-8,0Z"/>
        <path id="Path_13" data-name="Path 13" d="M151,291a6.675,6.675,0,0,0,7-7V244c0-4.143-2.858-8-7-8h-9c-4.142,0-7,3.857-7,8a6.675,6.675,0,0,0,7,7h1v33C143,288.142,146.858,291,151,291Z"/>
        <path id="Path_14" data-name="Path 14" d="M243,291c4.142,0,8-2.857,8-7V244a8.381,8.381,0,0,0-8-8h-8a8.381,8.381,0,0,0-8,8c0,4.143,3.858,7,8,7h1v33A6.675,6.675,0,0,0,243,291Z"/>
        <path id="Path_15" data-name="Path 15" d="M176,273a19,19,0,0,0,38,0V255a19,19,0,1,0-38,0Zm15-18a4,4,0,1,1,8,0v18a4,4,0,0,1-8,0Z"/>
        <path id="Path_16" data-name="Path 16" d="M195,209c4.142,0,8-2.857,8-7V162a8.381,8.381,0,0,0-8-8h-9c-4.142,0-7,3.857-7,8a6.675,6.675,0,0,0,7,7h2v33A6.675,6.675,0,0,0,195,209Z"/>
        <path id="Path_17" data-name="Path 17" d="M166,191V173a19,19,0,1,0-38,0v18a19,19,0,0,0,38,0Zm-15,0a4,4,0,0,1-8,0V173a4,4,0,1,1,8,0Z"/>
        <path id="Path_18" data-name="Path 18" d="M258,191V173a19,19,0,1,0-38,0v18a19,19,0,0,0,38,0Zm-15,0a4,4,0,0,1-8,0V173a4,4,0,1,1,8,0Z"/>
        <path id="Path_19" data-name="Path 19" d="M103,374c4.142,0,7-3.857,7-8V326a6.675,6.675,0,0,0-7-7H94a6.675,6.675,0,0,0-7,7c0,4.143,2.858,8,7,8h1v32A8.381,8.381,0,0,0,103,374Z"/>
        <path id="Path_20" data-name="Path 20" d="M35,356a19,19,0,0,0,38,0V337a19,19,0,0,0-38,0Zm15-19a4,4,0,0,1,8,0v19a4,4,0,0,1-8,0Z"/>
        <path id="Path_21" data-name="Path 21" d="M195,374a8.381,8.381,0,0,0,8-8V326c0-4.143-3.858-7-8-7h-9a6.675,6.675,0,0,0-7,7c0,4.143,2.858,8,7,8h2v32C188,370.143,190.858,374,195,374Z"/>
        <path id="Path_22" data-name="Path 22" d="M128,356a19,19,0,0,0,38,0V337a19,19,0,0,0-38,0Zm15-19a4,4,0,0,1,8,0v19a4,4,0,0,1-8,0Z"/>
        <path id="Path_23" data-name="Path 23" d="M220,356a19,19,0,0,0,38,0V337a19,19,0,0,0-38,0Zm15-19a4,4,0,0,1,8,0v19a4,4,0,0,1-8,0Z"/>
      </g>
    </g>
    <g id="camera" transform="translate(-2207.61 -3095)">
      <path id="Path_24" data-name="Path 24" d="M255.61,225a122.07,122.07,0,0,0-64,18c-3.537,2.156-5.157,7.463-3,11s7.463,4.157,11,2a106.607,106.607,0,0,1,56-16,109,109,0,1,1-109,109c0-27.629,11.189-53.77,30-74,2.821-3.033,2.033-7.18-1-10s-7.18-3.033-10,0c-21.4,23.015-34,52.568-34,84a124,124,0,1,0,124-124Z"/>
      <path id="Path_25" data-name="Path 25" d="M214.61,295a75.129,75.129,0,0,0,36,141,74.707,74.707,0,0,0,52-21c14-13.482,21.208-31.654,22-51a7.517,7.517,0,1,0-15-1c-1.32,32.238-26.725,58-59,58a60.3,60.3,0,0,1-29-113,7.382,7.382,0,1,0-7-13Z"/>
      <path id="Path_26" data-name="Path 26" d="M227.61,333a6.846,6.846,0,0,0-10,1,44.012,44.012,0,0,0-10,28c0,23.631,18.369,43,42,43a44.242,44.242,0,0,0,40-26,7.616,7.616,0,0,0-14-6,28.841,28.841,0,0,1-26,17c-15.36,0-27-12.641-27-28,0-6.529,1.784-12.988,6-18A8.041,8.041,0,0,0,227.61,333Z"/>
      <path id="Path_27" data-name="Path 27" d="M320.61,315a42,42,0,1,0-42,42A42.017,42.017,0,0,0,320.61,315Zm-69,0a27,27,0,1,1,27,27A27,27,0,0,1,251.61,315Z"/>
      <path id="Path_28" data-name="Path 28" d="M453.61,154h-4V140a16.041,16.041,0,0,0-16-16h-46a16.041,16.041,0,0,0-16,16v14h-61l-14-17V123h24a24.069,24.069,0,0,0,24-24V24a24.069,24.069,0,0,0-24-24h-128a24.069,24.069,0,0,0-24,24V99a24.069,24.069,0,0,0,24,24h24v14l-14,17h-55l-4-15a19.269,19.269,0,0,0-10-13V113a14.981,14.981,0,0,0-15-15h-22a14.981,14.981,0,0,0-15,15v13a19.264,19.264,0,0,0-10,13l-3,15h-11a41.3,41.3,0,0,0-41,41V422c0,22.415,18.585,40,41,40h83c29.384,30.1,69.711,49,115,49a162.488,162.488,0,0,0,116-49h82c22.415,0,41-17.585,41-40V195A41.3,41.3,0,0,0,453.61,154Zm26,41v54h-97a167.558,167.558,0,0,0-17-18,161.143,161.143,0,0,0-110-43c-51.145,0-96.348,23.818-126,61h-98V217h80a27.294,27.294,0,0,0,21-10l30-38h291A26.281,26.281,0,0,1,479.61,195Zm-380,194h-68V264h87c-15.581,24.852-24,53.567-24,85A162.963,162.963,0,0,0,99.61,389Zm287-249a1.024,1.024,0,0,1,1-1h46a1.024,1.024,0,0,1,1,1v14h-48Zm-203-41V24a9.052,9.052,0,0,1,9-9h128a9.052,9.052,0,0,1,9,9V99a9.052,9.052,0,0,1-9,9h-128A9.052,9.052,0,0,1,183.61,99Zm46,45c1.078-1.334,2-2.285,2-4V123h50v17c0,1.715.922,2.666,2,4l8,10h-70Zm-133-31h22v12h-22Zm-10,29c.262-1.229.743-2,2-2h38a3.047,3.047,0,0,1,3,2l2,12h-48Zm-29,27h86l-23,29a11.63,11.63,0,0,1-9,4h-80v-7A26.28,26.28,0,0,1,57.61,169Zm0,278c-14.144,0-26-10.856-26-25V404h72a162.672,162.672,0,0,0,24,43Zm198,49c-80.892,0-146-66.108-146-147a146.479,146.479,0,0,1,246-107,147.363,147.363,0,0,1,47,96,7.533,7.533,0,0,0,8,7c4.129-.329,7.329-4.871,7-9a158.33,158.33,0,0,0-24-72h86V389h-67a157.061,157.061,0,0,0,4-19c.521-4.109-2.891-7.479-7-8s-7.479,1.891-8,6C392.361,441.014,329.327,496,255.61,496Zm198-49h-69c9.868-12.929,18.361-27.352,24-43h71v18C479.61,436.144,467.754,447,453.61,447Z"/>
      <path id="Path_29" data-name="Path 29" d="M393.61,195v29a13.167,13.167,0,0,0,13,13h46a13.167,13.167,0,0,0,13-13V195a13.167,13.167,0,0,0-13-13h-46A13.168,13.168,0,0,0,393.61,195Zm15,2h42v25h-42Z"/>
      <path id="Path_30" data-name="Path 30" d="M261.61,78a6.675,6.675,0,0,0-7-7h-41V52h86V71h-13c-4.142,0-8,2.858-8,7a8.382,8.382,0,0,0,8,8h15a13.26,13.26,0,0,0,13-13V50a13.26,13.26,0,0,0-13-13h-90a13.26,13.26,0,0,0-13,13V73a13.26,13.26,0,0,0,13,13h43C258.751,86,261.61,82.142,261.61,78Z"/>
      <path id="Path_31" data-name="Path 31" d="M433.61,295h7c4.142,0,7-3.858,7-8a6.675,6.675,0,0,0-7-7h-7c-4.142,0-8,2.858-8,7A8.382,8.382,0,0,0,433.61,295Z"/>
    </g>
    <g id="chip" transform="translate(-1507 -2019.001)">
      <g id="Group_3" data-name="Group 3">
        <g id="Group_2" data-name="Group 2">
          <path id="Path_32" data-name="Path 32" d="M505,249H384V231h32c4.142,0,8-2.858,8-7a8.382,8.382,0,0,0-8-8H384V199h22c8.427,0,17.042-3.041,23-9l49-49a21.137,21.137,0,0,0,10,2,24.324,24.324,0,0,0,17-7c4.445-4.445,7-9.714,7-16a23.9,23.9,0,0,0-24-24c-6.286,0-11.555,2.556-16,7a24.32,24.32,0,0,0-7,17,21.137,21.137,0,0,0,2,10l-49,50c-3.125,3.125-7.579,4-12,4H384V168a40.359,40.359,0,0,0-40-40H328V62a23.16,23.16,0,0,0,16-22,24.367,24.367,0,0,0-24-24c-12.975,0-23,11.025-23,24a23.161,23.161,0,0,0,16,22v66H296V96a8.382,8.382,0,0,0-8-8c-4.142,0-7,3.858-7,8v32H264V8a8.382,8.382,0,0,0-8-8c-4.142,0-7,3.858-7,8V128H231V96c0-4.142-2.858-8-7-8a8.382,8.382,0,0,0-8,8v32H199V106c0-8.427-3.041-17.042-9-23L141,34c4.359-8.8,2.319-19.68-5-27a23.335,23.335,0,0,0-33,33,24.418,24.418,0,0,0,17,7,21.259,21.259,0,0,0,10-2l50,49c3.126,3.125,4,7.58,4,12v22H168c-3.345,0-6.784,1.173-10,2-4.011,1.032-6.032,4.988-5,9s4.989,6.033,9,5a23.778,23.778,0,0,1,6-1H344a25.344,25.344,0,0,1,25,25V344a23.824,23.824,0,0,1-1,6c-1.031,4.012.989,7.969,5,9,.626.161,1.381,1,2,1,3.341,0,6.13-2.614,7-6,.826-3.212,2-6.658,2-10V328h66a23.16,23.16,0,0,0,22,16,24.366,24.366,0,0,0,24-24c0-12.976-11.025-23-24-23a23.161,23.161,0,0,0-22,16H384V296h32a8.382,8.382,0,0,0,8-8c0-4.142-3.858-7-8-7H384V264H505c4.142,0,7-3.858,7-8A6.675,6.675,0,0,0,505,249ZM482,114c1.612-1.612,3.721-3,6-3a11.41,11.41,0,0,1,7,3c1.612,1.612,2,3.721,2,6s-.388,4.388-2,6-4.721,2-7,2-4.388-.388-6-2-2-3.721-2-6S480.388,115.612,482,114ZM126,30a8.485,8.485,0,0,1-12-12c1.664-1.664,3.814-3,6-3s4.337,1.337,6,3A8.461,8.461,0,0,1,126,30ZM320,48a7.661,7.661,0,0,1-8-8c0-4.7,3.295-9,8-9a9.364,9.364,0,0,1,9,9C329,44.7,324.7,48,320,48ZM472,312c4.7,0,9,3.3,9,8a9.364,9.364,0,0,1-9,9c-4.7,0-8-4.3-8-9A7.659,7.659,0,0,1,472,312Z"/>
        </g>
      </g>
      <g id="Group_5" data-name="Group 5">
        <g id="Group_4" data-name="Group 4">
          <path id="Path_33" data-name="Path 33" d="M409,472c-7.319-7.32-18.2-9.359-27-5l-50-49c-3.126-3.125-4-7.58-4-12V384h16c3.345,0,6.785-1.173,10-2,4.011-1.032,6.032-4.988,5-9s-4.986-6.032-9-5a23.771,23.771,0,0,1-6,1H168a25.344,25.344,0,0,1-25-25V168a23.763,23.763,0,0,1,1-6c1.033-4.011-.989-7.967-5-9s-7.968.989-9,5c-.828,3.214-2,6.654-2,10v16H62a23.16,23.16,0,0,0-22-16,24.366,24.366,0,0,0-24,24c0,12.976,11.025,23,24,23a23.161,23.161,0,0,0,22-16h66v17H96a8.382,8.382,0,0,0-8,8c0,4.142,3.858,7,8,7h32v18H8c-4.142,0-8,2.858-8,7a8.382,8.382,0,0,0,8,8H128v17H96c-4.142,0-8,2.858-8,7a8.382,8.382,0,0,0,8,8h32v17H106c-8.427,0-17.042,3.041-23,9L34,371a21.137,21.137,0,0,0-10-2,24.324,24.324,0,0,0-17,7c-4.443,4.445-7,9.715-7,16a24.322,24.322,0,0,0,7,17,24.318,24.318,0,0,0,17,7c6.286,0,11.555-2.556,16-7a24.32,24.32,0,0,0,7-17,21.137,21.137,0,0,0-2-10l49-50c3.125-3.125,7.579-4,12-4h22v16a40.359,40.359,0,0,0,40,40h16v66a23.16,23.16,0,0,0-16,22,24.367,24.367,0,0,0,24,24c12.975,0,23-11.025,23-24a23.161,23.161,0,0,0-16-22V384h17v32a8.382,8.382,0,0,0,8,8c4.142,0,7-3.858,7-8V384h18V504c0,4.142,2.858,8,7,8a8.382,8.382,0,0,0,8-8V384h17v32c0,4.142,2.858,8,7,8a8.382,8.382,0,0,0,8-8V384h17v22c0,8.427,3.041,17.042,9,23l49,49c-4.359,8.8-2.32,19.68,5,27,4.587,4.588,9.974,7,16,7a24.411,24.411,0,0,0,17-7A23.223,23.223,0,0,0,409,472ZM40,200c-4.7,0-9-3.3-9-8a9.364,9.364,0,0,1,9-9c4.7,0,8,4.3,8,9A7.659,7.659,0,0,1,40,200ZM30,398c-1.612,1.612-3.721,3-6,3a11.41,11.41,0,0,1-7-3c-1.612-1.612-2-3.721-2-6s.388-4.388,2-6,4.721-2,7-2,4.388.388,6,2,2,3.721,2,6S31.612,396.39,30,398Zm170,74c0,4.7-3.295,9-8,9a9.364,9.364,0,0,1-9-9c0-4.7,4.3-8,9-8A7.661,7.661,0,0,1,200,472Zm198,23a8.462,8.462,0,0,1-12,0,9.714,9.714,0,0,1,0-13c1.664-1.663,3.815-2,6-2s4.337.337,6,2A9.716,9.716,0,0,1,398,495Z"/>
        </g>
      </g>
      <g id="Group_7" data-name="Group 7">
        <g id="Group_6" data-name="Group 6">
          <path id="Path_34" data-name="Path 34" d="M336,236c0-16.04-11.939-29.585-28-34a25.521,25.521,0,0,0,1-6c0-15.186-13.434-28-30-28a32.794,32.794,0,0,0-23,10,32.8,32.8,0,0,0-23-10c-16.567,0-30,12.814-30,28a25.522,25.522,0,0,0,1,6c-16.061,4.414-28,17.959-28,34a32.153,32.153,0,0,0,8,21,37.909,37.909,0,0,0-8,23c0,12.752,6.777,24.614,18,32h0c0,17.4,15.946,32,35,32a35.7,35.7,0,0,0,27-12,35.7,35.7,0,0,0,27,12c18.337,0,33.894-13.508,35-30,11.137-6.462,18-17.778,18-30,0-8.99-4.4-17.518-11-24C331.6,253.519,336,244.99,336,236Zm-27,31c7.227,3.814,12,9.909,12,17,0,5.287-2.85,10.229-7,14a34.448,34.448,0,0,0-20-16,7.133,7.133,0,0,0-9,5c-1.242,3.952,1.049,8.759,5,10,7.646,2.4,13,8.117,13,15,0,9.125-9.217,17-20,17s-20-7.875-20-17V264c0-9.125,9.218-17,20-17,4.142,0,8-2.858,8-7a8.382,8.382,0,0,0-8-8,38.56,38.56,0,0,0-20,6V228a6.675,6.675,0,0,0-7-7c-4.142,0-8,2.858-8,7v42a34.1,34.1,0,0,0-8-4c-3.954-1.242-7.759,1.05-9,5s1.049,8.758,5,10c7.646,2.4,12,8.118,12,15v16c0,9.125-8.218,17-19,17s-20-7.875-20-17a16.172,16.172,0,0,1,5-11,6.789,6.789,0,0,0,0-10,7.984,7.984,0,0,0-11,0c-1.8,1.787-2.714,3.925-4,6-4.736-4.48-8-10.839-8-17,0-11.112,9.513-21.135,22-24,4.037-.926,5.926-4.963,5-9s-4.964-5.926-9-5c-5.027,1.153-9.9,2.473-14,5a17.1,17.1,0,0,1-4-11c0-11.281,10.817-20.913,24-21,.067,0-.066,0,0,0,1.712,0,3.591.193,5-1,2.875-2.434,3.93-6.893,2-10-.057-.092.06.089,0,0-.031-.045.032.045,0,0-.116-.163-.871-.846-1-1,0-.005,0,0,0,0a10.652,10.652,0,0,1-3-7c0-6.915,6.705-13,15-13s15,6.085,15,13c0,4.142,3.858,7,8,7a6.675,6.675,0,0,0,7-7c0-6.915,7.7-13,16-13s15,6.085,15,13c0,1.848-1.359,3.7-2,5a39.583,39.583,0,0,0-12,3,7.616,7.616,0,1,0,6,14c3.242-1.367,6.362-2.972,10-3,.072,0,.928,0,1,0s-.067,0,0,0c13.183.086,24,9.719,24,21,0,7.091-4.773,13.185-12,17a8.125,8.125,0,0,0,0,14Z"/>
        </g>
      </g>
    </g>
    <g id="drone" transform="translate(-2111 -806.217)">
      <path id="Path_35" data-name="Path 35" d="M504,113.217H444v-13a8.37,8.37,0,0,0-8-8c-4.15,0-7,3.849-7,8v13H368a8.37,8.37,0,0,0-8,8c0,4.151,3.85,7,8,7h61v23H410c-4.15,0-7,3.849-7,8v7H200a8.37,8.37,0,0,0-8,8c0,4.151,3.85,7,8,7H403v16H365a55.514,55.514,0,0,0-52,36,43.021,43.021,0,0,1-40,28H239a43.021,43.021,0,0,1-40-28,55.514,55.514,0,0,0-52-36H109v-16h61a6.666,6.666,0,0,0,7-7c0-4.151-2.85-8-7-8H109v-7c0-4.151-2.849-8-7-8H83v-23h61c4.15,0,8-2.849,8-7a8.37,8.37,0,0,0-8-8H83v-13c0-4.151-2.849-8-7-8a8.369,8.369,0,0,0-8,8v13H8a8.37,8.37,0,0,0-8,8c0,4.151,3.85,7,8,7H68v23H50a8.37,8.37,0,0,0-8,8v48a34.418,34.418,0,0,0,34,34,33.475,33.475,0,0,0,33-29h38a40.363,40.363,0,0,1,38,26c.778,2.1,1,4.039,2,6-9.911,4.7-26.783,14.9-44,32-22.939,22.776-50.053,63.541-52,129H74c-4.15,0-8,2.849-8,7a8.37,8.37,0,0,0,8,8H98a8.37,8.37,0,0,0,8-8c0-51.664,15.655-93.587,47-125a147.238,147.238,0,0,1,43-30,58.58,58.58,0,0,0,43,19h9v25H225a26.648,26.648,0,0,0-27,27v39a26.647,26.647,0,0,0,27,27h17a6.666,6.666,0,0,0,7-7c0-4.151-2.85-8-7-8H225a11.66,11.66,0,0,1-12-12v-39a11.66,11.66,0,0,1,12-12h62a11.66,11.66,0,0,1,12,12v39a11.66,11.66,0,0,1-12,12H272a8.37,8.37,0,0,0-8,8c0,4.151,3.85,7,8,7h15a26.648,26.648,0,0,0,27-27v-39a26.648,26.648,0,0,0-27-27H264v-25h9a58.58,58.58,0,0,0,43-19,147.224,147.224,0,0,1,43,30c31.345,31.413,47,73.335,47,125a8.369,8.369,0,0,0,8,8h24a8.37,8.37,0,0,0,8-8c0-4.151-3.85-7-8-7H421c-1.947-65.459-29.061-106.224-52-129-17.218-17.1-34.089-27.3-44-32,1-1.961,1.223-3.9,2-6a40.363,40.363,0,0,1,38-26h38a33.476,33.476,0,0,0,33,29,34.419,34.419,0,0,0,34-34v-48a8.37,8.37,0,0,0-8-8H444v-23h60c4.15,0,8-2.849,8-7A8.37,8.37,0,0,0,504,113.217Zm-410,94c0,10.17-7.828,19-18,19a19.429,19.429,0,0,1-19-19v-41H94Zm361,0a19.429,19.429,0,0,1-19,19c-10.171,0-18-8.83-18-19v-41h37Z"/>
      <path id="Path_36" data-name="Path 36" d="M274,345.217c0-4.151-3.85-7-8-7H247c-4.15,0-8,2.849-8,7a8.37,8.37,0,0,0,8,8h19A8.369,8.369,0,0,0,274,345.217Z"/>
    </g>
    <g id="gamepad" transform="translate(-1357 384.805)">
      <path id="Path_37" data-name="Path 37" d="M249,296.2a8.381,8.381,0,0,0-8,8c0,4.142,3.857,7,8,7h14c4.143,0,8-2.858,8-7a8.381,8.381,0,0,0-8-8Z"/>
      <path id="Path_38" data-name="Path 38" d="M223,245.195c-4.143,0-8,2.858-8,7a8.381,8.381,0,0,0,8,8h6a8.381,8.381,0,0,0,8-8c0-4.142-3.857-7-8-7Z"/>
      <path id="Path_39" data-name="Path 39" d="M283,245.195c-4.143,0-8,2.858-8,7a8.381,8.381,0,0,0,8,8h6a8.381,8.381,0,0,0,8-8c0-4.142-3.857-7-8-7Z"/>
      <path id="Path_40" data-name="Path 40" d="M330,236.195a24.319,24.319,0,0,0,24,24c3.593,0,6.949-1.557,10-3a23.08,23.08,0,0,0-2,10c0,13.012,9.989,24,23,24a24.318,24.318,0,0,0,24-24,23.083,23.083,0,0,0-2-10c3.051,1.442,6.408,3,10,3,13.012,0,23-10.988,23-24s-9.988-24-23-24c-3.592,0-6.95,1.558-10,3a23.083,23.083,0,0,0,2-10,24.318,24.318,0,0,0-24-24c-13.011,0-23,10.988-23,24a23.08,23.08,0,0,0,2,10c-3.051-1.442-6.408-3-10-3A24.319,24.319,0,0,0,330,236.195Zm55,40c-4.739,0-8-4.259-8-9a7.622,7.622,0,0,1,8-8c4.741,0,9,3.259,9,8A9.313,9.313,0,0,1,385,276.2Zm-10-30c1.442-3.051,3-6.407,3-10s-1.558-6.949-3-10a26,26,0,0,0,20,0,26,26,0,0,0,0,20,26,26,0,0,0-20,0Zm42-19c4.741,0,8,4.259,8,9s-3.258,9-8,9a9,9,0,1,1,0-18Zm-32-31a9.311,9.311,0,0,1,9,9c0,4.74-4.258,8-9,8a7.622,7.622,0,0,1-8-8C377,200.454,380.259,196.195,385,196.195Zm-22,40a9,9,0,1,1-9-9A9.312,9.312,0,0,1,363,236.195Z"/>
      <path id="Path_41" data-name="Path 41" d="M95,258.2h9v9c0,11.984,10.017,21,22,21s22-9.017,22-21v-9h9c11.983,0,21-10.017,21-22s-9.017-22-21-22h-9v-9c0-11.984-10.017-21-22-21s-22,9.017-22,21v9H95c-11.983,0-21,10.017-21,22S83.016,258.2,95,258.2Zm0-29h10a13.633,13.633,0,0,0,14-14v-10c0-3.713,3.289-6,7-6s7,2.288,7,6v10a13.633,13.633,0,0,0,14,14h10c3.712,0,6,3.288,6,7s-2.289,7-6,7H147a13.633,13.633,0,0,0-14,14v10c0,3.713-3.288,6-7,6s-7-2.288-7-6v-10a13.633,13.633,0,0,0-14-14H95c-3.713,0-6-3.288-6-7S91.286,229.195,95,229.195Z"/>
      <path id="Path_42" data-name="Path 42" d="M495,336.2c-1.821-3.72-6.281-5.823-10-4s-4.822,6.279-3,10l9,19c14.056,28.708,2.706,63.945-26,78-28.65,14.025-63.977,1.643-78-27l-26-53c1.635-4.459,3-9.313,3-14,0-22.519-18.48-40-41-40a40.7,40.7,0,0,0-39,29H228a40.7,40.7,0,0,0-39-29c-22.52,0-41,17.481-41,40,0,4.686,1.36,9.528,3,14l-26,53c-14.025,28.646-49.356,41.025-78,27s-40.025-49.356-26-78l42-85a74.292,74.292,0,0,0,63,35,75.289,75.289,0,0,0,75-75c0-10.1-2.636-20.171-7-30a135.219,135.219,0,0,0,33,4h58a135.256,135.256,0,0,0,33-4c-4.09,9.213-7,19.226-7,30a75.289,75.289,0,0,0,75,75,74.319,74.319,0,0,0,63-35l17,35c1.82,3.72,6.275,4.822,10,3s5.822-6.279,4-10l-23-46c2.15-6.962,4-14.342,4-22a75.289,75.289,0,0,0-75-75,74.535,74.535,0,0,0-55,24c-14.9,6.21-30.544,10-46,10h-3v-8a18.184,18.184,0,0,0-18-18h0v-109c0-4.142-2.857-8-7-8a8.381,8.381,0,0,0-8,8v109h-1a18.184,18.184,0,0,0-18,18v8h-3c-15.459,0-31.1-3.788-46-10a75.006,75.006,0,0,0-130,51c0,7.66,1.849,15.037,4,22l-48,97c-17.672,36.093-2.09,79.331,34,97a72.229,72.229,0,0,0,97-33l22-45a41.235,41.235,0,0,0,56,2h23a6.675,6.675,0,0,0,7-7c0-4.142-2.857-8-7-8H227a38.74,38.74,0,0,0,3-12h52a38.684,38.684,0,0,0,3,12H274a8.381,8.381,0,0,0-8,8c0,4.142,3.857,7,8,7h22a41.235,41.235,0,0,0,56-2l22,45a72.23,72.23,0,0,0,97,33c36.135-17.692,51.692-60.864,34-97Zm-109-160a60,60,0,1,1-60,60A60.272,60.272,0,0,1,386,176.195Zm-141,11a3.181,3.181,0,0,1,3-3h16a3.181,3.181,0,0,1,3,3v8H245Zm-119-11a60,60,0,1,1-60,60A60.262,60.262,0,0,1,126,176.195Zm37,169c0-14.248,11.751-25,26-25a25.921,25.921,0,0,1,26,24h0c.953,14.675-11.035,27-26,27A26.155,26.155,0,0,1,163,345.2Zm160,26c-14.875,0-26.96-12.216-26-27,0-.034,0,.034,0,0a25.9,25.9,0,0,1,26-24c14.248,0,26,10.752,26,25A26.152,26.152,0,0,1,323,371.2Z"/>
    </g>
    <g id="graphene" transform="translate(-2225 1496.999)">
      <g id="Group_8" data-name="Group 8">
        <path id="Path_43" data-name="Path 43" d="M506,209l-45-12a24.749,24.749,0,0,0-21-21l-8-30c-1.072-4-6-6.07-10-5a7.131,7.131,0,0,0-5,9l8,29a26.419,26.419,0,0,0-5,4c-7.51,7.51-8.537,17.995-4,27l-38,38c-9.005-4.537-20.491-2.509-28,5-1.467,1.467-2.975,2.258-4,4l-52-14c.014-.335,0-.663,0-1a23.94,23.94,0,0,0-25-24l-14-52c1.726-1.012,2.52-2.52,4-4,7.51-7.51,9.538-18.995,5-28l38-38c3.392,1.709,6.284,3,10,3a23.958,23.958,0,0,0,17-7,26.388,26.388,0,0,0,4-5l53,14c-.014.335,0,.663,0,1a24,24,0,1,0,48,0,25.014,25.014,0,0,0-3-11l35-34a7.778,7.778,0,0,0-11-11L421,81c-9.005-4.538-20.49-3.51-28,4-.6.6-1.474,1.353-2,2L336,72a22.961,22.961,0,0,0-7-14,22.966,22.966,0,0,0-14-7L303,6c-1.072-4-5-7.07-9-6s-7.071,5-6,9l12,45a26.419,26.419,0,0,0-5,4c-7.51,7.51-8.538,19-4,28l-38,38c-9.005-4.537-20.49-3.509-28,4-.6.6-.478,1.356-1,2l-55-15a24.749,24.749,0,0,0-21-21L135,48a7.28,7.28,0,1,0-14,4l12,45a26.357,26.357,0,0,0-5,4,23.868,23.868,0,0,0-7,17,25.014,25.014,0,0,0,3,11L86,166c-3.317-1.68-7.173-2-11-2a23.872,23.872,0,0,0-17,7,26.4,26.4,0,0,0-4,5L9,164a7.132,7.132,0,0,0-9,5c-1.072,4,2,7.927,6,9l45,12a25.526,25.526,0,0,0,7,15,22.961,22.961,0,0,0,14,7l15,55c-.645.523-1.4.4-2,1-7.51,7.51-8.538,19-4,28L46,330a7.984,7.984,0,0,0,0,11c1.464,1.464,4.081,2,6,2a6.606,6.606,0,0,0,5-2l34-34c3.392,1.709,7.284,2,11,2a23.958,23.958,0,0,0,17-7c.6-.6,1.477-1.355,2-2l9,3h0l46,12a24.749,24.749,0,0,0,21,21l8,30c.9,3.351,3.688,6,7,6a7.7,7.7,0,0,0,2,0c4-1.072,7.071-6,6-10l-8-29a26.421,26.421,0,0,0,5-4c7.51-7.51,8.537-17.995,4-27l38-38c3.391,1.709,7.284,2,11,2a23.967,23.967,0,0,0,17-7c.6-.6.474-1.353,1-2l55,15a25.445,25.445,0,0,0,7,15,23.958,23.958,0,0,0,17,7c.333,0,.667.014,1,0l14,52a26.42,26.42,0,0,0-5,4c-7.51,7.51-8.538,18.995-4,28l-38,38c-9.005-4.538-20.49-3.51-28,4a26.357,26.357,0,0,0-4,5l-52-14c.014-.335,0-.662,0-1a24,24,0,1,0-48,0c0,3.826.319,7.682,2,11l-34,34a7.984,7.984,0,0,0,0,11,6.61,6.61,0,0,0,5,2c1.919,0,4.536-.535,6-2l34-35a25.313,25.313,0,0,0,11,3,23.958,23.958,0,0,0,17-7c.6-.6.474-1.353,1-2l55,15a22.961,22.961,0,0,0,7,14,25.532,25.532,0,0,0,15,7l12,45c.9,3.351,3.688,6,7,6a7.7,7.7,0,0,0,2,0,7.131,7.131,0,0,0,5-9l-12-45a26.389,26.389,0,0,0,5-4c7.51-7.51,9.538-19,5-28l37-38a25.317,25.317,0,0,0,11,3,23.963,23.963,0,0,0,17-7,26.357,26.357,0,0,0,4-5l45,12a7.7,7.7,0,0,0,2,0c3.311,0,6.1-1.649,7-5a7.131,7.131,0,0,0-5-9l-46-13a24.749,24.749,0,0,0-21-21l-15-55c.645-.523,1.4-.4,2-1a23.868,23.868,0,0,0,7-17,25.007,25.007,0,0,0-3-11l38-38a25.317,25.317,0,0,0,11,3,23.963,23.963,0,0,0,17-7,26.4,26.4,0,0,0,4-5l45,12a7.7,7.7,0,0,0,2,0c3.311,0,6.1-2.649,7-6C513.065,214,510,210.074,506,209ZM403,96a10.893,10.893,0,0,1,7-3c2.308,0,4.242,1.243,6,3,1.7,1.7,3,3.593,3,6a10.838,10.838,0,0,1-3,7,9.333,9.333,0,0,1-13,0c-1.7-1.7-2-4.592-2-7S401.3,97.7,403,96ZM306,69c1.757-1.757,3.691-3,6-3a10.893,10.893,0,0,1,7,3,8.148,8.148,0,0,1,0,12,9.352,9.352,0,0,1-13,0h0A8.162,8.162,0,0,1,306,69ZM81,194a8.485,8.485,0,0,1-12-12c1.757-1.757,3.692-3,6-3s4.243,1.243,6,3A8.148,8.148,0,0,1,81,194Zm155-55c1.757-1.756,3.692-3,6-3a10.893,10.893,0,0,1,7,3,8.148,8.148,0,0,1,0,12,9.333,9.333,0,0,1-13,0A8.148,8.148,0,0,1,236,139Zm-97-28c1.757-1.757,3.691-2,6-2s4.243.243,6,2a9.334,9.334,0,0,1,0,13,8.163,8.163,0,0,1-12,0h0A9.351,9.351,0,0,1,139,111ZM109,292a9.192,9.192,0,0,1-13-13c1.757-1.757,3.691-3,6-3a10.893,10.893,0,0,1,7,3A9.333,9.333,0,0,1,109,292Zm97,27a9.192,9.192,0,0,1-13-13,10.893,10.893,0,0,1,7-3c2.308,0,4.243,1.242,6,3A9.333,9.333,0,0,1,206,319Zm47-94a23.868,23.868,0,0,0-7,17c0,3.827.319,7.683,2,11l-38,38c-9.005-4.537-19.491-3.509-27,4a26.429,26.429,0,0,0-4,5l-53-14a23.977,23.977,0,0,0-25-25L87,209a26.42,26.42,0,0,0,5-4c7.51-7.51,8.538-19,4-28l38-38a25.313,25.313,0,0,0,11,3,23.958,23.958,0,0,0,17-7,26.4,26.4,0,0,0,4-5l52,14a24,24,0,0,0,7,18,25.532,25.532,0,0,0,15,7l15,55C254.355,224.524,253.6,224.4,253,225Zm25,21c-.033.075.031-.077,0,0a10.446,10.446,0,0,1-2,3,9.346,9.346,0,0,1-13,0h0c-1.7-1.7-2-4.6-2-7s.3-4.3,2-6a10.891,10.891,0,0,1,7-3c2.308,0,4.243,1.243,6,3,1.7,1.7,3,3.593,3,6A12.8,12.8,0,0,1,278,246Zm95,30a8.148,8.148,0,0,1-12,0c-1.7-1.7-3-3.593-3-6a10.838,10.838,0,0,1,3-7c1.757-1.757,3.692-2,6-2s4.244.251,6,2h0a10.873,10.873,0,0,1,3,7C376,272.408,374.7,274.3,373,276ZM235,413c-.035.079.032-.081,0,0a10.515,10.515,0,0,1-2,3,9.335,9.335,0,0,1-13,0c-1.7-1.7-2-3.593-2-6s.3-5.3,2-7c1.757-1.757,4.691-2,7-2s4.243.243,6,2a10.838,10.838,0,0,1,3,7A7.6,7.6,0,0,1,235,413Zm95,30a8.485,8.485,0,0,1-12-12c1.757-1.757,3.692-3,6-3s4.245,1.253,6,3h0A8.162,8.162,0,0,1,330,443Zm58-82c1.757-1.757,3.692-3,6-3a10.893,10.893,0,0,1,7,3,8.148,8.148,0,0,1,0,12,9.333,9.333,0,0,1-13,0A8.148,8.148,0,0,1,388,361Zm55-155a8.148,8.148,0,0,1-12,0,9.333,9.333,0,0,1,0-13c1.757-1.757,3.692-2,6-2s4.243.243,6,2A9.333,9.333,0,0,1,443,206Z"/>
      </g>
    </g>
    <g id="laptop" transform="translate(-1543 2956)">
      <circle id="Ellipse_1" data-name="Ellipse 1" cx="6" cy="6" r="6" transform="translate(250 62)"/>
      <path id="Path_44" data-name="Path 44" d="M420,280V68c0-4.143-2.857-8-7-8H298a6.64,6.64,0,0,0-5,2L272,83a21.786,21.786,0,0,1-32,0c-.035-.036.037.034,0,0-.871-.859-12.931-12.932-21-21a6.632,6.632,0,0,0-5-2H99c-4.143,0-7,3.857-7,8v91a6.674,6.674,0,0,0,7,7c4.143,0,8-2.857,8-7V75H210l16,16c1.422,1.421,3.125,2.207,4,3h0a36.137,36.137,0,0,0,26,11,38.5,38.5,0,0,0,27-11l19-19H405V272H107V189a8.381,8.381,0,0,0-8-8c-4.143,0-7,3.857-7,8v91a6.674,6.674,0,0,0,7,7H413A6.674,6.674,0,0,0,420,280Z"/>
      <path id="Path_45" data-name="Path 45" d="M511,441,445,335a43.842,43.842,0,0,0-10-11c9.1-6.848,15-16.757,15-29V68c0-20.678-16.322-38-37-38H99C78.322,30,62,47.322,62,68V295c0,12.243,5.9,22.152,15,29a43.842,43.842,0,0,0-10,11L1,441a7.462,7.462,0,0,0-1,4c0,20.678,17.322,37,38,37H475a36.693,36.693,0,0,0,37-37A7.462,7.462,0,0,0,511,441ZM77,295V68c0-12.406,9.594-23,22-23H413c12.406,0,22,10.594,22,23V295a21.681,21.681,0,0,1-22,22H99A21.681,21.681,0,0,1,77,295Zm3,48a22.644,22.644,0,0,1,19-11H413a22.646,22.646,0,0,1,19,11l59,94H21ZM16,452H181a37.748,37.748,0,0,0,7,15H37A22.275,22.275,0,0,1,16,452Zm201,15a22.265,22.265,0,0,1-21-15H316c-3.1,8.729-12.223,15-22,15Zm258,0H324a37.761,37.761,0,0,0,7-15H496c-3.1,8.725-12.226,15-22,15Z"/>
      <path id="Path_46" data-name="Path 46" d="M64,403a8.346,8.346,0,0,0,7,4H441a8.347,8.347,0,0,0,7-4c1.322-2.385.444-4.689-1-7l-28-45c-1.371-2.193-3.414-4-6-4H99c-2.586,0-4.629,1.807-6,4L65,396C63.555,398.311,62.678,400.615,64,403Zm39-41H409l18,30H85Z"/>
    </g>
    <g id="robot" transform="translate(-2157 4815.5)">
      <g id="Group_10" data-name="Group 10">
        <g id="Group_9" data-name="Group 9">
          <path id="Path_47" data-name="Path 47" d="M339,235.5H172a18.054,18.054,0,0,0-18,18v9a18.054,18.054,0,0,0,18,18h94a6.679,6.679,0,0,0,7-7c0-.09,0-.909,0-1a6.851,6.851,0,0,0-7-7H172a3.057,3.057,0,0,1-3-3v-9a3.057,3.057,0,0,1,3-3H339a3.057,3.057,0,0,1,3,3v9a3.057,3.057,0,0,1-3,3H312c-4.11,0-7.1,3.891-7,8,0,.1,0-.1,0,0,.072,3.988,4.011,7,8,7h26a18.054,18.054,0,0,0,18-18v-9A18.054,18.054,0,0,0,339,235.5Z"/>
        </g>
      </g>
      <g id="Group_12" data-name="Group 12">
        <g id="Group_11" data-name="Group 11">
          <path id="Path_48" data-name="Path 48" d="M179,287.5a23.391,23.391,0,0,0-23,23c0,12.406,10.594,22,23,22a21.681,21.681,0,0,0,22-22C201,298.094,191.406,287.5,179,287.5Zm0,30c-4.136,0-8-2.864-8-7a8.391,8.391,0,0,1,8-8c4.136,0,7,3.864,7,8A6.682,6.682,0,0,1,179,317.5Z"/>
        </g>
      </g>
      <g id="Group_14" data-name="Group 14">
        <g id="Group_13" data-name="Group 13">
          <path id="Path_49" data-name="Path 49" d="M231,289.5a21.388,21.388,0,0,0-21,21c0,11.3,9.7,20,21,20a19.678,19.678,0,0,0,20-20C251,299.2,242.3,289.5,231,289.5Zm0,26c-3.033,0-6-1.967-6-5a6.4,6.4,0,0,1,6-6c3.033,0,5,2.967,5,6A4.69,4.69,0,0,1,231,315.5Z"/>
        </g>
      </g>
      <g id="Group_16" data-name="Group 16">
        <g id="Group_15" data-name="Group 15">
          <path id="Path_50" data-name="Path 50" d="M317,302.5H270a8.381,8.381,0,0,0-8,8c0,4.143,3.857,7,8,7h47a6.674,6.674,0,0,0,7-7C324,306.357,321.143,302.5,317,302.5Z"/>
        </g>
      </g>
      <g id="Group_18" data-name="Group 18">
        <g id="Group_17" data-name="Group 17">
          <path id="Path_51" data-name="Path 51" d="M353,302.5H340a8.381,8.381,0,0,0-8,8c0,4.143,3.857,7,8,7h13a6.674,6.674,0,0,0,7-7C360,306.357,357.143,302.5,353,302.5Z"/>
        </g>
      </g>
      <g id="Group_20" data-name="Group 20">
        <g id="Group_19" data-name="Group 19">
          <path id="Path_52" data-name="Path 52" d="M234,120.5a19.387,19.387,0,0,0-19,19c0,10.2,8.8,18,19,18a17.678,17.678,0,0,0,18-18C252,129.3,244.2,120.5,234,120.5Zm0,22c-1.93,0-4-1.07-4-3a4.42,4.42,0,0,1,4-4c1.93,0,3,2.07,3,4A2.71,2.71,0,0,1,234,142.5Z"/>
        </g>
      </g>
      <g id="Group_22" data-name="Group 22">
        <g id="Group_21" data-name="Group 21">
          <path id="Path_53" data-name="Path 53" d="M280,120.5a19.387,19.387,0,0,0-19,19c0,10.2,8.8,18,19,18a17.678,17.678,0,0,0,18-18C298,129.3,290.2,120.5,280,120.5Zm0,22c-1.93,0-4-1.07-4-3a4.42,4.42,0,0,1,4-4c1.93,0,3,2.07,3,4A2.71,2.71,0,0,1,280,142.5Z"/>
        </g>
      </g>
      <g id="Group_24" data-name="Group 24">
        <g id="Group_23" data-name="Group 23">
          <path id="Path_54" data-name="Path 54" d="M257,366.5a8.381,8.381,0,0,0-8,8v18c0,4.143,3.857,7,8,7a6.674,6.674,0,0,0,7-7v-18C264,370.357,261.143,366.5,257,366.5Z"/>
        </g>
      </g>
      <g id="Group_26" data-name="Group 26">
        <g id="Group_25" data-name="Group 25">
          <path id="Path_55" data-name="Path 55" d="M505,455.5H475v-12a18.181,18.181,0,0,0-18-18h-6v-44c4.948-5.128,8-11.328,8-19a28.955,28.955,0,0,0-8-20v-62a18.075,18.075,0,0,0,12-17v-10a31.811,31.811,0,0,0-32-32H395a23.705,23.705,0,0,0-18-9v-32a37.843,37.843,0,0,0-30-37v-11c0-49.9-40.1-91-90-91s-91,41.1-91,91v11a37.843,37.843,0,0,0-30,37v32a23.705,23.705,0,0,0-18,9H82a31.811,31.811,0,0,0-32,32v10a18.076,18.076,0,0,0,12,17v62a28.953,28.953,0,0,0-8,20c0,7.672,3.052,13.871,8,19v44H56a18.181,18.181,0,0,0-18,18v12H8a8.381,8.381,0,0,0-8,8c0,4.143,3.857,7,8,7H505a6.674,6.674,0,0,0,7-7C512,459.357,509.143,455.5,505,455.5Zm-105-219h31a17.041,17.041,0,0,1,15,9H422a8.381,8.381,0,0,0-8,8c0,4.143,3.857,7,8,7h26v3a3.027,3.027,0,0,1-3,3H400Zm36,45v53c-1.781-.35-3.118-1-5-1a33.031,33.031,0,0,0-7,1v-53Zm-89-107v-16c8.729,3.1,15,12.223,15,22v32H307l-5-31h38A6.674,6.674,0,0,0,347,174.5Zm-166-42c0-41.631,34.369-76,76-76s75,34.369,75,76v34H316v-9h3a6.674,6.674,0,0,0,7-7v-22c0-4.143-2.857-8-7-8h-3v-4a18.692,18.692,0,0,0-19-19H287v-13c0-4.143-2.857-8-7-8H234a8.381,8.381,0,0,0-8,8v13H216a18.692,18.692,0,0,0-19,19v4h-2a8.381,8.381,0,0,0-8,8v22c0,4.143,3.857,7,8,7h2v9H181Zm31,34v-50a3.709,3.709,0,0,1,4-4h81a3.709,3.709,0,0,1,4,4v50Zm80,46H219l5-31h63Zm-51-115v-6h31v6Zm-90,83c0-9.777,6.271-18.9,15-22v16c0,4.143,3.857,7,8,7h35l-5,31H151Zm-23,56a9.324,9.324,0,0,1,9-9H376a9.324,9.324,0,0,1,9,9v93a9.324,9.324,0,0,1-9,9H274a31.292,31.292,0,0,0-17-5,34.767,34.767,0,0,0-18,5H137a9.324,9.324,0,0,1-9-9Zm171,144h-9v-13a35.8,35.8,0,0,0-3-14h40v37a4.163,4.163,0,0,1-4,4h-7C314.77,386.584,307.256,380.5,299,380.5Zm2,17v9a2.439,2.439,0,0,1-2,2h-9v-13h9A2.439,2.439,0,0,1,301,397.5Zm-87-17c-8.256,0-15.77,6.084-17,14h-7a4.163,4.163,0,0,1-4-4v-37h40a35.8,35.8,0,0,0-3,14v13Zm9,15h0v13h-9a2.439,2.439,0,0,1-2-2v-9a2.439,2.439,0,0,1,2-2ZM65,260.5H92a6.674,6.674,0,0,0,7-7c0-4.143-2.857-8-7-8H67a17.04,17.04,0,0,1,15-9h31v30H68a3.027,3.027,0,0,1-3-3Zm24,21v53a24.388,24.388,0,0,0-6-1,34.151,34.151,0,0,0-6,1v-53Zm0,174H53v-12a3.177,3.177,0,0,1,3-3h6v3c0,4.143,3.857,7,8,7H89Zm0-20H77v-46a34.151,34.151,0,0,0,6,1,24.388,24.388,0,0,0,6-1Zm-6-60c-7.444,0-14-5.556-14-13a14.386,14.386,0,0,1,14-14c7.444,0,13,6.556,13,14A12.676,12.676,0,0,1,83,375.5Zm21,80v-75a26.634,26.634,0,0,0,7-18,29.232,29.232,0,0,0-7-19v-62h9v48a24.33,24.33,0,0,0,24,24h34v37a19.172,19.172,0,0,0,19,19h7c1.23,7.916,8.745,14,17,14h9v14c0,6.835,2.472,12.7,6,18Zm171-18c0,7.53-4.529,13.116-11,16v-41c0-4.143-2.857-8-7-8a8.381,8.381,0,0,0-8,8v41c-6.471-2.884-11-8.47-11-16v-70a19.387,19.387,0,0,1,19-19c10.2,0,18,8.8,18,19Zm134-94a29.23,29.23,0,0,0-7,19,26.636,26.636,0,0,0,7,18v75H284c3.528-5.3,6-11.165,6-18v-14h9c8.256,0,15.77-6.084,17-14h7a19.172,19.172,0,0,0,19-19v-37h34a24.33,24.33,0,0,0,24-24v-48h9Zm8,19a14.386,14.386,0,0,1,14-14c7.444,0,13,6.556,13,14a12.676,12.676,0,0,1-13,13C423.556,375.5,417,369.944,417,362.5Zm19,27v46H424v-46a33.031,33.031,0,0,0,7,1C432.882,390.5,434.219,389.85,436,389.5Zm24,66H424v-5h20a6.674,6.674,0,0,0,7-7v-3h6a3.177,3.177,0,0,1,3,3Z"/>
        </g>
      </g>
    </g>
    <g id="smart-clothing" transform="translate(-1799.047 8118)">
      <g id="Group_28" data-name="Group 28">
        <g id="Group_27" data-name="Group 27">
          <path id="Path_56" data-name="Path 56" d="M104.047,128a8.382,8.382,0,0,0-8,8v16c0,4.142,3.858,7,8,7a6.675,6.675,0,0,0,7-7V136C111.047,131.858,108.189,128,104.047,128Z"/>
        </g>
      </g>
      <g id="Group_30" data-name="Group 30">
        <g id="Group_29" data-name="Group 29">
          <path id="Path_57" data-name="Path 57" d="M449.047,42l-81-33a127.256,127.256,0,0,0-28-8c-5.281-.924-12.781-1-18-1h-132a121.191,121.191,0,0,0-46,9l-81,33c-23.93,9.853-39,33.121-39,59V391a22.406,22.406,0,0,0,14,21l58,25v51a24.367,24.367,0,0,0,24,24h272a24.367,24.367,0,0,0,24-24V437l58-25a22.407,22.407,0,0,0,14-21V101C488.048,75.121,472.977,51.853,449.047,42Zm-259-27h132c1.727,0,3.285-.084,5,0-22.181,51.281-56.735,72.188-71,79-14.254-6.81-48.821-27.729-71-79C186.763,14.916,188.322,15,190.047,15Zm-21,2c25.133,61.625,66.981,84.677,84,92a5,5,0,0,0,6,0c7.653-3.291,22.525-10.545,39-26a187.251,187.251,0,0,0,45-66,99.81,99.81,0,0,1,16,5c-33.8,84.65-98.214,105.143-101,106a8.456,8.456,0,0,1-5,0c-2.77-.852-66.194-21.345-100-106A99.878,99.878,0,0,1,169.047,17Zm-73,404h0l-52-22a8.591,8.591,0,0,1-5-8V377l57,25Zm377-30a8.592,8.592,0,0,1-5,8l-52,22V402l57-25Zm0-30-57,24V136a8.382,8.382,0,0,0-8-8c-4.142,0-7,3.858-7,8V465h-17a6.675,6.675,0,0,0-7,7c0,4.142,2.858,8,7,8h17v8a9.364,9.364,0,0,1-9,9h-272a9.364,9.364,0,0,1-9-9v-8h241a8.382,8.382,0,0,0,8-8c0-4.142-3.858-7-8-7h-241V320h114c2.279,0,4.388.389,6,2l28,28c-1.573,3.154-3,6.243-3,10a24,24,0,0,0,48,0c0-12.975-11.025-23-24-23a21.177,21.177,0,0,0-10,2l-28-27a24.326,24.326,0,0,0-17-7h-114V288h211a23.16,23.16,0,0,0,22,16,24.367,24.367,0,0,0,24-24c0-12.975-11.025-23-24-23a23.162,23.162,0,0,0-22,16h-211V255h114c6.286,0,12.555-1.555,17-6l28-28a21.177,21.177,0,0,0,10,2c12.976,0,24-10.025,24-23a24,24,0,0,0-48,0c0,3.757,1.428,6.846,3,10l-28,28c-1.612,1.611-3.721,2-6,2h-114V184c0-4.142-2.858-8-7-8a8.382,8.382,0,0,0-8,8V385l-57-24V101a48.425,48.425,0,0,1,30-45l70-29c36.475,91.162,106.966,114.067,110,115a25,25,0,0,0,14,0c3.051-.938,73.527-23.844,110-115l70,29a48.427,48.427,0,0,1,30,45Zm-202-1c0-4.7,4.3-8,9-8s9,3.3,9,8a9,9,0,0,1-18,0Zm65-80a7.66,7.66,0,0,1,8-8c4.7,0,9,3.3,9,8a9.365,9.365,0,0,1-9,9C339.343,289,336.047,284.7,336.047,280Zm-65-80a9,9,0,0,1,18,0c0,4.7-4.3,8-9,8S271.047,204.705,271.047,200Z"/>
        </g>
      </g>
    </g>
  </g>
</svg>
